<svg id="visual" viewBox="0 0 900 600" width="900" height="600" xmlns="http://www.w3.org/2000/svg" xmlns:xlink="http://www.w3.org/1999/xlink" version="1.1"><rect x="0" y="0" width="900" height="600" fill="#000000"></rect><path d="M0 233L21.5 229.2C43 225.3 86 217.7 128.8 219.3C171.7 221 214.3 232 257.2 231.2C300 230.3 343 217.7 385.8 219.2C428.7 220.7 471.3 236.3 514.2 241.5C557 246.7 600 241.3 642.8 234.3C685.7 227.3 728.3 218.7 771.2 221.8C814 225 857 240 878.5 247.5L900 255L900 0L878.5 0C857 0 814 0 771.2 0C728.3 0 685.7 0 642.8 0C600 0 557 0 514.2 0C471.3 0 428.7 0 385.8 0C343 0 300 0 257.2 0C214.3 0 171.7 0 128.8 0C86 0 43 0 21.5 0L0 0Z" fill="#000000"></path><path d="M0 148L21.5 151.7C43 155.3 86 162.7 128.8 165.5C171.7 168.3 214.3 166.7 257.2 166.5C300 166.3 343 167.7 385.8 174.3C428.7 181 471.3 193 514.2 195.3C557 197.7 600 190.3 642.8 190C685.7 189.7 728.3 196.3 771.2 190.3C814 184.3 857 165.7 878.5 156.3L900 147L900 0L878.5 0C857 0 814 0 771.2 0C728.3 0 685.7 0 642.8 0C600 0 557 0 514.2 0C471.3 0 428.7 0 385.8 0C343 0 300 0 257.2 0C214.3 0 171.7 0 128.8 0C86 0 43 0 21.5 0L0 0Z" fill="#3b3b3b"></path><path d="M0 141L21.5 142C43 143 86 145 128.8 142C171.7 139 214.3 131 257.2 127.8C300 124.7 343 126.3 385.8 127.5C428.7 128.7 471.3 129.3 514.2 127.2C557 125 600 120 642.8 123C685.7 126 728.3 137 771.2 144.5C814 152 857 156 878.5 158L900 160L900 0L878.5 0C857 0 814 0 771.2 0C728.3 0 685.7 0 642.8 0C600 0 557 0 514.2 0C471.3 0 428.7 0 385.8 0C343 0 300 0 257.2 0C214.3 0 171.7 0 128.8 0C86 0 43 0 21.5 0L0 0Z" fill="#777777"></path><path d="M0 104L21.5 103.7C43 103.3 86 102.7 128.8 100.7C171.7 98.7 214.3 95.3 257.2 92.5C300 89.7 343 87.3 385.8 85.2C428.7 83 471.3 81 514.2 85.8C557 90.7 600 102.3 642.8 109.2C685.7 116 728.3 118 771.2 115.7C814 113.3 857 106.7 878.5 103.3L900 100L900 0L878.5 0C857 0 814 0 771.2 0C728.3 0 685.7 0 642.8 0C600 0 557 0 514.2 0C471.3 0 428.7 0 385.8 0C343 0 300 0 257.2 0C214.3 0 171.7 0 128.8 0C86 0 43 0 21.5 0L0 0Z" fill="#b9b9b9"></path><path d="M0 57L21.5 52.8C43 48.7 86 40.3 128.8 36.7C171.7 33 214.3 34 257.2 36.7C300 39.3 343 43.7 385.8 48.5C428.7 53.3 471.3 58.7 514.2 60.7C557 62.7 600 61.3 642.8 60C685.7 58.7 728.3 57.3 771.2 56C814 54.7 857 53.3 878.5 52.7L900 52L900 0L878.5 0C857 0 814 0 771.2 0C728.3 0 685.7 0 642.8 0C600 0 557 0 514.2 0C471.3 0 428.7 0 385.8 0C343 0 300 0 257.2 0C214.3 0 171.7 0 128.8 0C86 0 43 0 21.5 0L0 0Z" fill="#ffffff"></path></svg>