<svg xmlns="http://www.w3.org/2000/svg" viewBox="0 0 1920 1080"><g transform="          rotate(180 960 540)           translate(-2.2737367544323206e-13 -1.1368683772161603e-13)          scale(1.0000000000000002)        "><rect width="1920" height="1080" fill="rgb(255, 255, 255)"></rect><g transform="translate(0, 0)"><path fill="rgb(170, 170, 170)" fill-opacity="1" d="M0,352.943L160,350.075C320,347.207,640,341.471,960,340.581C1280,339.692,1600,343.65,1760,345.629L1920,347.608L1920,1080L1760,1080C1600,1080,1280,1080,960,1080C640,1080,320,1080,160,1080L0,1080Z"></path></g><g transform="translate(0, 360)"><path fill="rgb(85, 85, 85)" fill-opacity="1" d="M0,338.404L160,301.649C320,264.894,640,191.383,960,185.175C1280,178.967,1600,240.06,1760,270.607L1920,301.154L1920,720L1760,720C1600,720,1280,720,960,720C640,720,320,720,160,720L0,720Z"></path></g><g transform="translate(0, 720)"><path fill="rgb(0, 0, 0)" fill-opacity="1" d="M0,5.526L160,49.209C320,92.892,640,180.258,960,202.019C1280,223.78,1600,179.937,1760,158.015L1920,136.093L1920,360L1760,360C1600,360,1280,360,960,360C640,360,320,360,160,360L0,360Z"></path></g></g></svg>